<?xml version="1.0" encoding="UTF-8" standalone="no"?>
<!DOCTYPE svg PUBLIC "-//W3C//DTD SVG 1.1//EN"
 "http://www.w3.org/Graphics/SVG/1.1/DTD/svg11.dtd">
<!-- Generated by graphviz version 7.0.0 (20221023.0053)
 -->
<!-- Title: nfa Pages: 1 -->
<svg width="634pt" height="152pt"
 viewBox="0.00 0.00 634.00 152.00" xmlns="http://www.w3.org/2000/svg" xmlns:xlink="http://www.w3.org/1999/xlink">
<g id="graph0" class="graph" transform="scale(1 1) rotate(0) translate(4 148)">
<title>nfa</title>
<polygon fill="white" stroke="none" points="-4,4 -4,-148 630,-148 630,4 -4,4"/>
<!-- a -->
<g id="node1" class="node">
<title>a</title>
<ellipse fill="none" stroke="black" cx="27" cy="-72" rx="27" ry="18"/>
<text text-anchor="middle" x="27" y="-68.3" font-family="Times,serif" font-size="14.00">a</text>
</g>
<!-- b -->
<g id="node2" class="node">
<title>b</title>
<ellipse fill="none" stroke="black" cx="124" cy="-126" rx="27" ry="18"/>
<text text-anchor="middle" x="124" y="-122.3" font-family="Times,serif" font-size="14.00">b</text>
</g>
<!-- a&#45;&gt;b -->
<g id="edge1" class="edge">
<title>a&#45;&gt;b</title>
<path fill="none" stroke="black" d="M48.15,-83.45C61.25,-90.9 78.55,-100.74 93.23,-109.08"/>
<polygon fill="black" stroke="black" points="91.14,-111.92 101.57,-113.82 94.6,-105.83 91.14,-111.92"/>
<text text-anchor="middle" x="75.5" y="-103.8" font-family="Times,serif" font-size="14.00">ϵ</text>
</g>
<!-- g -->
<g id="node7" class="node">
<title>g</title>
<ellipse fill="none" stroke="black" cx="124" cy="-72" rx="27" ry="18"/>
<text text-anchor="middle" x="124" y="-68.3" font-family="Times,serif" font-size="14.00">g</text>
</g>
<!-- a&#45;&gt;g -->
<g id="edge6" class="edge">
<title>a&#45;&gt;g</title>
<path fill="none" stroke="black" d="M54.46,-72C64.04,-72 75.04,-72 85.39,-72"/>
<polygon fill="black" stroke="black" points="85.17,-75.5 95.17,-72 85.17,-68.5 85.17,-75.5"/>
<text text-anchor="middle" x="75.5" y="-75.8" font-family="Times,serif" font-size="14.00">ϵ</text>
</g>
<!-- l -->
<g id="node12" class="node">
<title>l</title>
<ellipse fill="none" stroke="black" cx="124" cy="-18" rx="27" ry="18"/>
<text text-anchor="middle" x="124" y="-14.3" font-family="Times,serif" font-size="14.00">l</text>
</g>
<!-- a&#45;&gt;l -->
<g id="edge11" class="edge">
<title>a&#45;&gt;l</title>
<path fill="none" stroke="black" d="M48.15,-60.55C61.25,-53.1 78.55,-43.26 93.23,-34.92"/>
<polygon fill="black" stroke="black" points="94.6,-38.17 101.57,-30.18 91.14,-32.08 94.6,-38.17"/>
<text text-anchor="middle" x="75.5" y="-49.8" font-family="Times,serif" font-size="14.00">ϵ</text>
</g>
<!-- c -->
<g id="node3" class="node">
<title>c</title>
<ellipse fill="none" stroke="black" cx="221" cy="-126" rx="27" ry="18"/>
<text text-anchor="middle" x="221" y="-122.3" font-family="Times,serif" font-size="14.00">c</text>
</g>
<!-- b&#45;&gt;c -->
<g id="edge2" class="edge">
<title>b&#45;&gt;c</title>
<path fill="none" stroke="black" d="M151.46,-126C161.04,-126 172.04,-126 182.39,-126"/>
<polygon fill="black" stroke="black" points="182.17,-129.5 192.17,-126 182.17,-122.5 182.17,-129.5"/>
<text text-anchor="middle" x="172.5" y="-129.8" font-family="Times,serif" font-size="14.00">0</text>
</g>
<!-- d -->
<g id="node4" class="node">
<title>d</title>
<ellipse fill="none" stroke="black" cx="318" cy="-126" rx="27" ry="18"/>
<text text-anchor="middle" x="318" y="-122.3" font-family="Times,serif" font-size="14.00">d</text>
</g>
<!-- c&#45;&gt;d -->
<g id="edge3" class="edge">
<title>c&#45;&gt;d</title>
<path fill="none" stroke="black" d="M248.46,-126C258.04,-126 269.04,-126 279.39,-126"/>
<polygon fill="black" stroke="black" points="279.17,-129.5 289.17,-126 279.17,-122.5 279.17,-129.5"/>
<text text-anchor="middle" x="269.5" y="-129.8" font-family="Times,serif" font-size="14.00">1</text>
</g>
<!-- e -->
<g id="node5" class="node">
<title>e</title>
<ellipse fill="none" stroke="black" cx="415" cy="-126" rx="27" ry="18"/>
<text text-anchor="middle" x="415" y="-122.3" font-family="Times,serif" font-size="14.00">e</text>
</g>
<!-- d&#45;&gt;e -->
<g id="edge4" class="edge">
<title>d&#45;&gt;e</title>
<path fill="none" stroke="black" d="M345.46,-126C355.04,-126 366.04,-126 376.39,-126"/>
<polygon fill="black" stroke="black" points="376.17,-129.5 386.17,-126 376.17,-122.5 376.17,-129.5"/>
<text text-anchor="middle" x="366.5" y="-129.8" font-family="Times,serif" font-size="14.00">1</text>
</g>
<!-- f -->
<g id="node6" class="node">
<title>f</title>
<ellipse fill="none" stroke="black" cx="512" cy="-126" rx="27" ry="18"/>
<text text-anchor="middle" x="512" y="-122.3" font-family="Times,serif" font-size="14.00">f</text>
</g>
<!-- e&#45;&gt;f -->
<g id="edge5" class="edge">
<title>e&#45;&gt;f</title>
<path fill="none" stroke="black" d="M442.46,-126C452.04,-126 463.04,-126 473.39,-126"/>
<polygon fill="black" stroke="black" points="473.17,-129.5 483.17,-126 473.17,-122.5 473.17,-129.5"/>
<text text-anchor="middle" x="463.5" y="-129.8" font-family="Times,serif" font-size="14.00">1</text>
</g>
<!-- q -->
<g id="node17" class="node">
<title>q</title>
<ellipse fill="none" stroke="black" cx="604" cy="-72" rx="18" ry="18"/>
<ellipse fill="none" stroke="black" cx="604" cy="-72" rx="22" ry="22"/>
<text text-anchor="middle" x="604" y="-68.3" font-family="Times,serif" font-size="14.00">q</text>
</g>
<!-- f&#45;&gt;q -->
<g id="edge16" class="edge">
<title>f&#45;&gt;q</title>
<path fill="none" stroke="black" d="M532.53,-114.28C545.01,-106.79 561.39,-96.97 575.21,-88.67"/>
<polygon fill="black" stroke="black" points="576.66,-91.88 583.44,-83.74 573.06,-85.88 576.66,-91.88"/>
<text text-anchor="middle" x="560.5" y="-102.8" font-family="Times,serif" font-size="14.00">ϵ</text>
</g>
<!-- h -->
<g id="node8" class="node">
<title>h</title>
<ellipse fill="none" stroke="black" cx="221" cy="-72" rx="27" ry="18"/>
<text text-anchor="middle" x="221" y="-68.3" font-family="Times,serif" font-size="14.00">h</text>
</g>
<!-- g&#45;&gt;h -->
<g id="edge7" class="edge">
<title>g&#45;&gt;h</title>
<path fill="none" stroke="black" d="M151.46,-72C161.04,-72 172.04,-72 182.39,-72"/>
<polygon fill="black" stroke="black" points="182.17,-75.5 192.17,-72 182.17,-68.5 182.17,-75.5"/>
<text text-anchor="middle" x="172.5" y="-75.8" font-family="Times,serif" font-size="14.00">1</text>
</g>
<!-- i -->
<g id="node9" class="node">
<title>i</title>
<ellipse fill="none" stroke="black" cx="318" cy="-72" rx="27" ry="18"/>
<text text-anchor="middle" x="318" y="-68.3" font-family="Times,serif" font-size="14.00">i</text>
</g>
<!-- h&#45;&gt;i -->
<g id="edge8" class="edge">
<title>h&#45;&gt;i</title>
<path fill="none" stroke="black" d="M248.46,-72C258.04,-72 269.04,-72 279.39,-72"/>
<polygon fill="black" stroke="black" points="279.17,-75.5 289.17,-72 279.17,-68.5 279.17,-75.5"/>
<text text-anchor="middle" x="269.5" y="-75.8" font-family="Times,serif" font-size="14.00">0</text>
</g>
<!-- j -->
<g id="node10" class="node">
<title>j</title>
<ellipse fill="none" stroke="black" cx="415" cy="-72" rx="27" ry="18"/>
<text text-anchor="middle" x="415" y="-68.3" font-family="Times,serif" font-size="14.00">j</text>
</g>
<!-- i&#45;&gt;j -->
<g id="edge9" class="edge">
<title>i&#45;&gt;j</title>
<path fill="none" stroke="black" d="M345.46,-72C355.04,-72 366.04,-72 376.39,-72"/>
<polygon fill="black" stroke="black" points="376.17,-75.5 386.17,-72 376.17,-68.5 376.17,-75.5"/>
<text text-anchor="middle" x="366.5" y="-75.8" font-family="Times,serif" font-size="14.00">1</text>
</g>
<!-- k -->
<g id="node11" class="node">
<title>k</title>
<ellipse fill="none" stroke="black" cx="512" cy="-72" rx="27" ry="18"/>
<text text-anchor="middle" x="512" y="-68.3" font-family="Times,serif" font-size="14.00">k</text>
</g>
<!-- j&#45;&gt;k -->
<g id="edge10" class="edge">
<title>j&#45;&gt;k</title>
<path fill="none" stroke="black" d="M442.46,-72C452.04,-72 463.04,-72 473.39,-72"/>
<polygon fill="black" stroke="black" points="473.17,-75.5 483.17,-72 473.17,-68.5 473.17,-75.5"/>
<text text-anchor="middle" x="463.5" y="-75.8" font-family="Times,serif" font-size="14.00">1</text>
</g>
<!-- k&#45;&gt;q -->
<g id="edge17" class="edge">
<title>k&#45;&gt;q</title>
<path fill="none" stroke="black" d="M539.03,-72C548.73,-72 559.87,-72 570.11,-72"/>
<polygon fill="black" stroke="black" points="570.06,-75.5 580.06,-72 570.06,-68.5 570.06,-75.5"/>
<text text-anchor="middle" x="560.5" y="-75.8" font-family="Times,serif" font-size="14.00">ϵ</text>
</g>
<!-- m -->
<g id="node13" class="node">
<title>m</title>
<ellipse fill="none" stroke="black" cx="221" cy="-18" rx="27" ry="18"/>
<text text-anchor="middle" x="221" y="-14.3" font-family="Times,serif" font-size="14.00">m</text>
</g>
<!-- l&#45;&gt;m -->
<g id="edge12" class="edge">
<title>l&#45;&gt;m</title>
<path fill="none" stroke="black" d="M151.46,-18C161.04,-18 172.04,-18 182.39,-18"/>
<polygon fill="black" stroke="black" points="182.17,-21.5 192.17,-18 182.17,-14.5 182.17,-21.5"/>
<text text-anchor="middle" x="172.5" y="-21.8" font-family="Times,serif" font-size="14.00">1</text>
</g>
<!-- n -->
<g id="node14" class="node">
<title>n</title>
<ellipse fill="none" stroke="black" cx="318" cy="-18" rx="27" ry="18"/>
<text text-anchor="middle" x="318" y="-14.3" font-family="Times,serif" font-size="14.00">n</text>
</g>
<!-- m&#45;&gt;n -->
<g id="edge13" class="edge">
<title>m&#45;&gt;n</title>
<path fill="none" stroke="black" d="M248.46,-18C258.04,-18 269.04,-18 279.39,-18"/>
<polygon fill="black" stroke="black" points="279.17,-21.5 289.17,-18 279.17,-14.5 279.17,-21.5"/>
<text text-anchor="middle" x="269.5" y="-21.8" font-family="Times,serif" font-size="14.00">1</text>
</g>
<!-- o -->
<g id="node15" class="node">
<title>o</title>
<ellipse fill="none" stroke="black" cx="415" cy="-18" rx="27" ry="18"/>
<text text-anchor="middle" x="415" y="-14.3" font-family="Times,serif" font-size="14.00">o</text>
</g>
<!-- n&#45;&gt;o -->
<g id="edge14" class="edge">
<title>n&#45;&gt;o</title>
<path fill="none" stroke="black" d="M345.46,-18C355.04,-18 366.04,-18 376.39,-18"/>
<polygon fill="black" stroke="black" points="376.17,-21.5 386.17,-18 376.17,-14.5 376.17,-21.5"/>
<text text-anchor="middle" x="366.5" y="-21.8" font-family="Times,serif" font-size="14.00">0</text>
</g>
<!-- p -->
<g id="node16" class="node">
<title>p</title>
<ellipse fill="none" stroke="black" cx="512" cy="-18" rx="27" ry="18"/>
<text text-anchor="middle" x="512" y="-14.3" font-family="Times,serif" font-size="14.00">p</text>
</g>
<!-- o&#45;&gt;p -->
<g id="edge15" class="edge">
<title>o&#45;&gt;p</title>
<path fill="none" stroke="black" d="M442.46,-18C452.04,-18 463.04,-18 473.39,-18"/>
<polygon fill="black" stroke="black" points="473.17,-21.5 483.17,-18 473.17,-14.5 473.17,-21.5"/>
<text text-anchor="middle" x="463.5" y="-21.8" font-family="Times,serif" font-size="14.00">0</text>
</g>
<!-- p&#45;&gt;q -->
<g id="edge18" class="edge">
<title>p&#45;&gt;q</title>
<path fill="none" stroke="black" d="M532.53,-29.72C545.01,-37.21 561.39,-47.03 575.21,-55.33"/>
<polygon fill="black" stroke="black" points="573.06,-58.12 583.44,-60.26 576.66,-52.12 573.06,-58.12"/>
<text text-anchor="middle" x="560.5" y="-51.8" font-family="Times,serif" font-size="14.00">ϵ</text>
</g>
</g>
</svg>
